<svg class="logo" viewBox="0 0 900 450" width="900" height="450" xmlns="http://www.w3.org/2000/svg" xmlns:xlink="http://www.w3.org/1999/xlink" version="1.1"><rect x="0" y="0" width="900" height="450" fill="#002233"></rect><path d="M0 373L129 373L129 367L257 367L257 345L386 345L386 302L514 302L514 336L643 336L643 312L771 312L771 351L900 351L900 309L900 451L900 451L771 451L771 451L643 451L643 451L514 451L514 451L386 451L386 451L257 451L257 451L129 451L129 451L0 451Z" fill="#0066FF" stroke-linecap="square" stroke-linejoin="miter"></path></svg>